<?xml version="1.0" encoding="utf-8"?>
<svg xmlns="http://www.w3.org/2000/svg" viewBox="0 0 64 64">
  <g fill="#b73434"><circle cx="33" cy="27" r="20.3"/><path d="m33 44 17-9-17-9-17 9z"/></g>
  <path d="M16 44v10l17 9 18-9V44z" fill="#4564ba"/>
  <path d="M55 15h-3m10 0h-3m-2 2v3m0-10v3M9 9l-2 2m7-7-2 2m0 3 2 2M7 4l2 2M4 16v2m0 2v2m-1-3H1m6 0H5" fill="none" stroke="#bcc0c4" stroke-width="2"/>
  <path d="M51 44v10l-18 9-17-9V44m17 1v18m-9-47v19m12-23v21M50 8a4 4 0 0 0-8 0v27M23 7l-1-2a4 4 0 0 1 8 0v33m-6-26v2m12-4V8m0-2V4m0 31v2" fill="none" stroke="#000" stroke-width="2"/>
  <path d="m7 42 17 9 9-6v-1l-17-9-9 6zm52 0-17 9-9-6v-1l17-9 9 6zM7 28l17-9v12l-8 4-9-6zm52 0-17-9v12l8 4 9-6z" fill="#fff" stroke="#000" stroke-width="2"/>
</svg>
